<svg xmlns="http://www.w3.org/2000/svg" width="1200" height="630" viewBox="0 0 1200 630">
  <defs>
    <linearGradient id="bg" x1="0" y1="0" x2="1" y2="1">
      <stop offset="0" stop-color="#071b2b"/>
      <stop offset="1" stop-color="#0c283a"/>
    </linearGradient>
    <linearGradient id="sweep" x1="0" y1="0" x2="1" y2="1">
      <stop offset="0" stop-color="#5fe0c0" stop-opacity="0.5"/>
      <stop offset="1" stop-color="#d7ff72" stop-opacity="0.04"/>
    </linearGradient>
  </defs>

  <rect width="1200" height="630" fill="url(#bg)"/>
  <g stroke="#ffffff" stroke-opacity="0.045">
    <path d="M0 90H1200M0 180H1200M0 270H1200M0 360H1200M0 450H1200M0 540H1200"/>
    <path d="M90 0V630M180 0V630M270 0V630M360 0V630M450 0V630M540 0V630M630 0V630M720 0V630M810 0V630M900 0V630M990 0V630M1080 0V630"/>
  </g>

  <g transform="translate(930 315)">
    <circle r="248" fill="none" stroke="#ffffff" stroke-opacity="0.08"/>
    <circle r="182" fill="none" stroke="#ffffff" stroke-opacity="0.11"/>
    <circle r="116" fill="none" stroke="#ffffff" stroke-opacity="0.14"/>
    <path d="M0-248V248M-248 0H248M-175-175 175 175M-175 175 175-175" fill="none" stroke="#ffffff" stroke-opacity="0.07"/>
    <path d="M0 0 175-175A248 248 0 0 1 248 27Z" fill="url(#sweep)"/>
    <path d="M0 0 175-175" fill="none" stroke="#5fe0c0" stroke-width="3"/>
    <circle cx="126" cy="-88" r="8" fill="#d7ff72"/>
    <circle cx="-82" cy="105" r="6" fill="#5fe0c0"/>
  </g>

  <g fill="none" stroke="#8fdcf1" stroke-opacity="0.55" stroke-width="2" transform="translate(665 492)">
    <path d="M0 0c13-48 26 48 39 0s26 48 39 0 26 48 39 0 26 48 39 0 26 48 39 0"/>
  </g>

  <g font-family="Arial, Helvetica, sans-serif">
    <text x="82" y="86" fill="#5fe0c0" font-size="18" font-weight="700" letter-spacing="3">ENGINEERING · RESEARCH</text>
    <text x="82" y="195" fill="#ffffff" font-size="60" font-weight="700">Williams Maikol</text>
    <text x="82" y="263" fill="#ffffff" font-size="60" font-weight="700">Bouzid</text>
    <text x="82" y="340" fill="#d7ff72" font-size="31" font-weight="400">Radar · Sonar · Statistical Signal Processing</text>
    <text x="82" y="401" fill="#ffffff" fill-opacity="0.66" font-size="24">Complex systems from signals to intelligent machines.</text>
    <text x="82" y="548" fill="#ffffff" fill-opacity="0.42" font-size="17" letter-spacing="1.5">COMPUTER VISION · ESTIMATION · CONTROL · EMBEDDED SYSTEMS</text>
  </g>

  <rect x="82" y="465" width="490" height="2" fill="#5fe0c0" fill-opacity="0.65"/>
</svg>
